<svg xmlns="http://www.w3.org/2000/svg" width="32" height="24" fill="none" viewBox="0 0 32 24"><path fill="#fff" stroke="#E6E6E6" d="M4.096 0.5H27.904C29.8862 0.5 31.5 2.12098 31.5 4.12903V19.871C31.5 21.879 29.8862 23.5 27.904 23.5H4.096C2.11376 23.5 0.5 21.879 0.5 19.871V4.12903C0.5 2.12098 2.11376 0.5 4.096 0.5Z"/><path fill="url(#paint0_linear)" d="M9 17C12.6164 17 14.1918 14.411 16 12H4V17H9Z"/><path fill="url(#paint1_linear)" d="M23 7C19.3836 7 17.8082 9.58904 16 12H28V7H23Z"/><defs><linearGradient id="paint0_linear" x1="6.427" x2="15.206" y1="14.456" y2="11.195" gradientUnits="userSpaceOnUse"><stop stop-color="#005AB9"/><stop offset="1" stop-color="#1E3764"/></linearGradient><linearGradient id="paint1_linear" x1="16.727" x2="26.047" y1="12.24" y2="9.06" gradientUnits="userSpaceOnUse"><stop stop-color="#FBA900"/><stop offset="1" stop-color="#FFD800"/></linearGradient></defs></svg>